<?xml version="1.0" encoding="UTF-8" standalone="no"?>
<!DOCTYPE svg PUBLIC "-//W3C//DTD SVG 1.1//EN" "http://www.w3.org/Graphics/SVG/1.1/DTD/svg11.dtd">
<svg width="100%" height="100%" viewBox="0 0 200 200" version="1.1" xmlns="http://www.w3.org/2000/svg" xmlns:xlink="http://www.w3.org/1999/xlink" xml:space="preserve" xmlns:serif="http://www.serif.com/" style="fill-rule:evenodd;clip-rule:evenodd;stroke-linecap:round;stroke-linejoin:round;stroke-miterlimit:1.5;">
    <path d="M91,150L14,150L96,7.5L129,67C129,67 175.176,49.347 189,55C189,55 156,55 117,99L96,64L59,124L100,124C100,124 87,148 91,150Z" style="fill:rgb(0,162,77);"/>
    <path d="M100,147C100,147 117,118.5 126,117L146,150L178,150L140,86C140,86 108,107 100,147Z" style="fill:rgb(0,162,77);stroke:rgb(0,162,77);stroke-width:1px;"/>
    <g transform="matrix(1,0,0,1,-3.20726,-5)">
        <g transform="matrix(37.6933,0,0,37.6933,181.584,189)">
        </g>
        <text x="14px" y="189px" style="font-family:'Ubuntu-Bold', 'Ubuntu', sans-serif;font-weight:700;font-size:37.693px;fill:rgb(0,162,77);stroke:rgb(0,162,77);stroke-width:1px;stroke-linecap:butt;stroke-miterlimit:2;">ADOME<tspan x="156.141px " y="189px ">X</tspan></text>
    </g>
</svg>
